<svg width="24" height="24" viewBox="0 0 24 24" fill="none" xmlns="http://www.w3.org/2000/svg">
<path fill-rule="evenodd" clip-rule="evenodd" d="M9.592 15.2068C13.281 15.2068 16.434 15.7658 16.434 17.9988C16.434 20.2318 13.302 20.8068 9.592 20.8068C5.902 20.8068 2.75 20.2528 2.75 18.0188C2.75 15.7848 5.881 15.2068 9.592 15.2068Z" stroke="#0B132A" stroke-width="1.5" stroke-linecap="round" stroke-linejoin="round"/>
<path fill-rule="evenodd" clip-rule="evenodd" d="M9.59108 12.0198C7.16908 12.0198 5.20508 10.0568 5.20508 7.63476C5.20508 5.21276 7.16908 3.24976 9.59108 3.24976C12.0121 3.24976 13.9761 5.21276 13.9761 7.63476C13.9851 10.0478 12.0351 12.0108 9.62208 12.0198H9.59108Z" stroke="#0B132A" stroke-width="1.5" stroke-linecap="round" stroke-linejoin="round"/>
<path d="M16.4844 10.8815C18.0854 10.6565 19.3184 9.28253 19.3214 7.61953C19.3214 5.98053 18.1264 4.62053 16.5594 4.36353" stroke="#0B132A" stroke-width="1.5" stroke-linecap="round" stroke-linejoin="round"/>
<path d="M18.5957 14.7322C20.1467 14.9632 21.2297 15.5072 21.2297 16.6272C21.2297 17.3982 20.7197 17.8982 19.8957 18.2112" stroke="#0B132A" stroke-width="1.5" stroke-linecap="round" stroke-linejoin="round"/>
</svg>
