<svg width="39" height="13" viewBox="0 0 39 13" fill="none" xmlns="http://www.w3.org/2000/svg">
<g clip-path="url(#clip0_34_558)">
<path fill-rule="evenodd" clip-rule="evenodd" d="M7.0006 0.669556C6.98818 0.669556 6.97575 0.669556 6.96333 0.669556C5.2943 0.669556 3.68842 1.05967 2.13225 1.84667C1.50067 3.35808 1.1445 4.89453 1.12586 6.46227C1.10101 8.01749 1.41939 9.61027 2.12552 11.2349C3.75054 11.9462 5.37557 12.3113 7.0006 12.3306C8.62563 12.3113 10.2507 11.9462 11.8752 11.2349C12.5818 9.61027 12.9002 8.01749 12.8753 6.46227C12.8567 4.89453 12.5005 3.35808 11.869 1.84667C10.3128 1.05967 8.7069 0.669556 7.03787 0.669556C7.02545 0.669556 7.01302 0.669556 7.0006 0.669556Z" fill="#FEFEFE"/>
<path d="M1.87012 1.50085C3.50757 0.656998 5.20714 0.241333 6.96366 0.241333C6.97609 0.241333 6.98851 0.241333 7.00094 0.241333C7.01336 0.241333 7.02579 0.241333 7.03821 0.241333C8.79473 0.241333 10.4943 0.656998 12.1318 1.50085L12.2322 1.60776C12.9005 3.19428 13.2821 4.81261 13.3007 6.45597C13.3007 6.48726 13.3007 6.5123 13.3007 6.54411V6.65728C13.2945 8.23754 12.957 9.84961 12.2322 11.4867L12.1193 11.5936C10.4135 12.3556 8.70724 12.7395 7.00094 12.7587C5.29463 12.7395 3.58833 12.3556 1.88254 11.5936L1.76968 11.4867C1.04492 9.84961 0.707384 8.23754 0.701172 6.65728V6.54411C0.701172 6.5123 0.701172 6.48726 0.701172 6.45597C0.719809 4.81261 1.10135 3.19428 1.76968 1.60776L1.87012 1.50085ZM7.00094 0.669515C6.98851 0.669515 6.97609 0.669515 6.96366 0.669515C5.29463 0.669515 3.68876 1.05962 2.13258 1.84662C1.501 3.35804 1.14483 4.89449 1.1262 6.46223C1.10135 8.01745 1.41973 9.61023 2.12585 11.2348C3.75088 11.9462 5.37591 12.3113 7.00094 12.3306C8.62596 12.3113 10.251 11.9462 11.8755 11.2348C12.5821 9.61023 12.9005 8.01745 12.8757 6.46223C12.857 4.89449 12.5009 3.35804 11.8693 1.84662C10.3131 1.05962 8.70724 0.669515 7.03821 0.669515C7.02579 0.669515 7.01336 0.669515 7.00094 0.669515Z" fill="#003399"/>
<path fill-rule="evenodd" clip-rule="evenodd" d="M7.11278 9.99475C7.0253 8.79208 7.08172 7.53883 6.72555 6.39301C6.39423 5.32281 5.1378 4.7121 5.11295 3.53446C5.0881 2.61499 5.7818 1.55106 7.08172 1.55106C8.30036 1.5448 9.05671 2.43871 9.1442 3.43381C9.25033 4.58588 7.86292 5.36037 7.50053 6.45612C7.12521 7.5769 7.23185 8.81711 7.11278 9.99475Z" fill="#003399"/>
<path fill-rule="evenodd" clip-rule="evenodd" d="M7.59408 9.70449C7.54386 8.65933 7.54386 7.65849 7.8317 6.77032C8.15008 5.76323 8.81272 4.91312 9.82532 4.63618C10.519 4.44739 11.5373 5.26568 11.3753 6.10327C11.2376 6.7771 10.5687 7.57036 9.494 7.65849C8.99391 7.7023 8.78166 8.10545 8.46897 8.33858C9.86881 8.19985 10.7753 7.64598 11.4063 7.06655C11.5 7.55732 11.5627 8.38239 11.1811 8.66558C10.4315 9.20068 9.73783 8.76624 8.85621 9.01814C8.36285 9.16313 8.05638 9.47814 7.59408 9.70449Z" fill="#003399"/>
<path fill-rule="evenodd" clip-rule="evenodd" d="M6.63893 9.70449C6.69484 8.65933 6.68863 7.65849 6.40752 6.77032C6.08863 5.76323 5.4265 4.91312 4.4139 4.63618C3.7202 4.44739 2.69517 5.26568 2.86394 6.10327C3.00164 6.7771 3.66998 7.57036 4.74522 7.65849C5.2391 7.7023 5.45756 8.10545 5.77025 8.33858C4.36368 8.19985 3.46394 7.64598 2.83288 7.06655C2.73917 7.55732 2.67653 8.38239 3.05755 8.66558C3.80769 9.20068 4.50139 8.76624 5.3825 9.01814C5.87637 9.16313 6.17611 9.47814 6.63893 9.70449Z" fill="#003399"/>
<path fill-rule="evenodd" clip-rule="evenodd" d="M9.96968 11.26V11.0899L10.095 11.0587L9.96968 10.8699V10.5548L10.5324 11.3418L10.3326 11.3924L10.1949 11.1969L9.96968 11.26ZM9.96968 10.5548V10.8699L9.88219 10.7436L9.84492 11.1218L9.96968 11.0899V11.26L9.82628 11.2918L9.80092 11.5244L9.60109 11.575L9.73258 10.5486L9.93241 10.498L9.96968 10.5548ZM8.10755 11.8081V11.6443H8.15104C8.21989 11.6381 8.26389 11.6318 8.28253 11.625C8.30738 11.6188 8.33223 11.6 8.34517 11.5812C8.36381 11.5562 8.37002 11.5306 8.37002 11.4994C8.36381 11.4681 8.3576 11.4425 8.33844 11.4237C8.32602 11.405 8.30117 11.3924 8.27632 11.3862C8.25147 11.3799 8.19504 11.3799 8.10755 11.3862V11.2224C8.15725 11.2224 8.18883 11.2162 8.20125 11.2162C8.23231 11.2099 8.25768 11.1906 8.27632 11.1718C8.29496 11.153 8.30117 11.128 8.29496 11.0962C8.29496 11.0649 8.28253 11.0399 8.26389 11.0268C8.25147 11.0081 8.2261 10.9955 8.18883 10.9955C8.1764 10.9955 8.15104 10.9955 8.10755 11.0018V10.838C8.1764 10.8318 8.2261 10.8318 8.25768 10.838C8.29496 10.838 8.33223 10.8511 8.36381 10.8699C8.39487 10.8824 8.41972 10.9074 8.44509 10.9387C8.46372 10.9705 8.47615 11.0081 8.48236 11.0524C8.48857 11.0962 8.47615 11.1405 8.45751 11.1781C8.43887 11.2162 8.40729 11.2474 8.36381 11.2725C8.42593 11.2855 8.47615 11.3106 8.50721 11.3481C8.545 11.3862 8.56364 11.43 8.56985 11.4868C8.56985 11.5306 8.56364 11.575 8.55121 11.6188C8.53258 11.6631 8.50721 11.6944 8.47615 11.7262C8.43887 11.7513 8.40108 11.77 8.35138 11.7825C8.3198 11.7888 8.23853 11.7951 8.11998 11.8081H8.10755ZM9.2884 11.2787L9.48254 11.3043C9.47011 11.4112 9.43853 11.4994 9.38262 11.5625C9.32619 11.6188 9.24492 11.6631 9.145 11.6819C9.01972 11.7007 8.90738 11.6756 8.81368 11.6063C8.71377 11.5306 8.65734 11.4237 8.62628 11.2725C8.60091 11.1155 8.62006 10.983 8.6884 10.8824C8.75104 10.7817 8.85096 10.7186 8.98245 10.6936C9.101 10.6743 9.1947 10.6936 9.28219 10.7499C9.33241 10.7817 9.37589 10.8318 9.40747 10.9074L9.22628 10.983C9.20764 10.9387 9.17606 10.9011 9.13879 10.8824C9.09479 10.8573 9.0513 10.8511 9.00109 10.8573C8.93223 10.8699 8.88253 10.9074 8.84474 10.9643C8.80747 11.0268 8.80126 11.1092 8.81989 11.2224C8.84474 11.3418 8.88253 11.4237 8.93223 11.4681C8.98245 11.5119 9.04509 11.5306 9.11342 11.5181C9.16364 11.5056 9.20143 11.4806 9.23249 11.4425C9.26355 11.405 9.28219 11.3481 9.2884 11.2787ZM8.10755 10.838V11.0018C8.0827 11.0018 8.05734 11.0081 8.02627 11.0081L7.91394 11.0211L7.93257 11.2412L8.06355 11.2287C8.07597 11.2287 8.09513 11.2287 8.10755 11.2224V11.3862C8.10755 11.3862 8.10755 11.3862 8.10134 11.3862L7.95121 11.3987L7.96985 11.6569L8.10755 11.6443V11.8081L7.79487 11.8394L7.70738 10.8761L8.08891 10.8448C8.09513 10.838 8.10134 10.838 8.10755 10.838ZM6.90133 11.4743V11.3106C6.94482 11.3106 6.97019 11.3043 6.98882 11.298C7.01367 11.2918 7.03231 11.2725 7.05146 11.2537C7.06389 11.2287 7.0701 11.2036 7.0701 11.1781C7.07631 11.1405 7.06389 11.1155 7.04473 11.0899C7.0261 11.0649 7.00125 11.0524 6.97019 11.0461C6.95103 11.0461 6.9324 11.0399 6.90133 11.0399V10.8761C6.99504 10.8761 7.05146 10.8824 7.08253 10.8949C7.13895 10.9074 7.18244 10.9387 7.22023 10.9893C7.2575 11.0399 7.27614 11.1025 7.26993 11.1781C7.26993 11.2349 7.2575 11.2855 7.23887 11.3293C7.2135 11.3669 7.18865 11.3987 7.15759 11.4237C7.1198 11.4425 7.08874 11.455 7.05146 11.4681C7.01367 11.4743 6.96397 11.4743 6.90133 11.4743ZM6.90133 10.8761V11.0399C6.8827 11.0399 6.85733 11.0399 6.82627 11.0399L6.73257 11.0336V11.3106H6.83248C6.85733 11.3106 6.8827 11.3106 6.90133 11.3106V11.4743C6.88891 11.4743 6.86975 11.4743 6.85112 11.4743H6.72635L6.72014 11.8394L6.52601 11.8331L6.54516 10.8699L6.85112 10.8761C6.86975 10.8761 6.88891 10.8761 6.90133 10.8761ZM5.09511 11.3799V11.0837C5.15154 11.0962 5.18882 11.0962 5.20745 11.0962C5.23282 11.0899 5.25146 11.0837 5.27009 11.0649C5.28252 11.0461 5.29494 11.0268 5.30115 10.9955C5.30737 10.9643 5.30115 10.9387 5.28873 10.9137C5.2763 10.8886 5.25146 10.8761 5.21988 10.8636C5.20745 10.8573 5.16397 10.8511 5.09511 10.838V10.6743L5.17639 10.6873C5.2763 10.7061 5.34516 10.7249 5.38864 10.7499C5.43265 10.7755 5.46371 10.813 5.48235 10.8636C5.5015 10.9074 5.50771 10.9643 5.49529 11.0211C5.48235 11.0899 5.45128 11.1468 5.40159 11.1843C5.35758 11.2224 5.28873 11.2412 5.20124 11.2412C5.23903 11.2725 5.27009 11.3043 5.28873 11.3356C5.31358 11.3737 5.33895 11.43 5.37001 11.5119L5.45128 11.72L5.22609 11.6756L5.12617 11.4425C5.11375 11.4237 5.10754 11.3987 5.09511 11.3799ZM5.6449 10.7817L5.8323 10.8005L5.78882 11.3231C5.78261 11.405 5.78261 11.4618 5.78261 11.4806C5.78882 11.5244 5.80745 11.5562 5.8323 11.5812C5.86388 11.6125 5.90116 11.625 5.95758 11.6318C6.01401 11.6381 6.0575 11.625 6.08235 11.6063C6.11393 11.5875 6.13256 11.5625 6.14499 11.5306C6.1512 11.4994 6.15741 11.4425 6.16363 11.3669L6.20763 10.8318L6.40125 10.8511L6.35776 11.3544C6.35155 11.4743 6.3386 11.5562 6.31997 11.6C6.30754 11.6443 6.28269 11.6881 6.25733 11.7132C6.22627 11.745 6.18278 11.77 6.13256 11.7825C6.08856 11.8018 6.02644 11.8018 5.95137 11.7951C5.85767 11.7888 5.78882 11.77 5.74481 11.745C5.70133 11.72 5.66354 11.6881 5.63869 11.6569C5.61384 11.6188 5.60141 11.5812 5.5952 11.5437C5.58899 11.4868 5.58899 11.405 5.5952 11.298L5.6449 10.7817ZM4.12652 11.0649L4.16379 10.9074L4.57018 11.0143L4.47026 11.3862C4.42005 11.4175 4.3574 11.4362 4.26992 11.4425C4.18864 11.4488 4.11409 11.4425 4.03903 11.4237C3.93859 11.3987 3.85783 11.3544 3.80141 11.298C3.73877 11.2349 3.70149 11.1593 3.68285 11.0774C3.66991 10.9893 3.66991 10.9011 3.69528 10.813C3.72013 10.7186 3.76361 10.6367 3.82625 10.5674C3.88268 10.5048 3.95775 10.4667 4.04524 10.4479C4.11409 10.4292 4.19485 10.4354 4.28286 10.4604C4.3952 10.4917 4.48269 10.5361 4.53238 10.6054C4.5826 10.668 4.60745 10.7499 4.60124 10.838L4.40762 10.8255C4.40762 10.7755 4.3952 10.7311 4.36362 10.6936C4.33256 10.6618 4.29528 10.6305 4.23885 10.618C4.15758 10.5992 4.08872 10.6054 4.02608 10.643C3.96396 10.6811 3.91996 10.7562 3.8889 10.8573C3.85783 10.9705 3.86405 11.0587 3.89511 11.128C3.93238 11.1969 3.98881 11.2412 4.06387 11.26C4.10736 11.2725 4.14515 11.2725 4.18864 11.2725C4.23264 11.2662 4.26992 11.2537 4.30771 11.2412L4.33877 11.1218L4.12652 11.0649ZM5.09511 10.6743L4.77 10.618L4.60745 11.5687L4.79485 11.6L4.86371 11.2036L4.90771 11.2099C4.9512 11.2162 4.98277 11.2287 5.00141 11.2349C5.02005 11.2474 5.03247 11.2662 5.05111 11.2855C5.05732 11.3043 5.07648 11.3356 5.09511 11.3799V11.0837C5.07648 11.0837 5.05732 11.0774 5.03247 11.0774L4.89528 11.0524L4.93256 10.813L5.08269 10.838C5.0889 10.838 5.09511 10.838 5.09511 10.838V10.6743Z" fill="#003399"/>
<path fill-rule="evenodd" clip-rule="evenodd" d="M34.8814 9.49708V7.72125H35.6564V4.59828L34.8814 6.15976V2.26232H37.9249L38.6999 11.2411H35.6564V9.49708H34.8814ZM34.8814 2.26232V6.15976L34.1064 7.72125H34.8814V9.49708H33.4189L32.8189 11.1467H30.9314V9.09393L33.0374 4.5164H32.6062L33.8062 2.26232H34.8814ZM30.9314 5.25333L31.8752 2.99925L30.9314 2.47041V5.25333ZM23.4254 4.39071C23.4694 4.13255 23.4694 3.88065 23.4254 3.64126V4.39071ZM30.9314 2.47041V5.25333L30.8067 5.5553C28.944 4.21443 26.194 5.43587 26.0377 6.85237C25.8819 8.33197 27.0006 9.52837 29.8567 8.63446L28.8752 11.2787C25.1069 11.7006 23.6444 10.1959 23.4254 8.4394V7.44431C23.4819 6.98484 23.6004 6.53788 23.763 6.12221C25.6194 1.47532 28.6313 2.52048 29.7754 2.43234L29.9442 1.91602L30.9314 2.47041ZM30.9314 9.09393L29.9877 11.1467H30.9314V9.09393ZM20.0382 11.0899C22.0567 10.6872 24.0379 8.24383 22.0505 6.29849C22.8254 5.88283 23.3069 5.1339 23.4254 4.39071V3.64126C23.2883 2.86678 22.6945 2.23728 21.5757 2.21851L20.0382 2.18669V3.91194H20.6755C21.3568 3.91194 21.2693 5.68777 20.4192 5.68777H20.0382V7.04794C20.9571 7.22422 20.632 8.50825 20.0382 8.90514V11.0899ZM23.4254 7.44431V8.4394C23.3882 8.11188 23.3882 7.77809 23.4254 7.44431ZM17.3757 2.13037L16.1322 4.56073L16.6882 4.5164L15.1885 11.1467H19.4822C19.6696 11.1467 19.8508 11.1279 20.0382 11.0899V8.90514C19.9321 8.98076 19.813 9.02457 19.6944 9.02457H18.1507L18.6632 7.02865H19.8192C19.9005 7.02865 19.9756 7.0349 20.0382 7.04794V5.68777H18.963L19.3942 3.91194H20.0382V2.18669L17.3757 2.13037Z" fill="#003399"/>
</g>
<defs>
<clipPath id="clip0_34_558">
<rect width="38" height="12.5174" fill="white" transform="translate(0.700195 0.241333)"/>
</clipPath>
</defs>
</svg>
