<svg width="39" height="33" viewBox="0 0 39 33" fill="none" xmlns="http://www.w3.org/2000/svg">
<g clip-path="url(#clip0_34_529)">
<path fill-rule="evenodd" clip-rule="evenodd" d="M8.05176 3.76354C8.05176 1.96127 9.52336 0.5 11.3384 0.5H27.6815C29.4965 0.5 30.9668 1.96127 30.9668 3.76354V19.992C30.9668 21.7943 29.4965 23.2555 27.6815 23.2555H11.3384C9.52336 23.2555 8.05176 21.7943 8.05176 19.992V3.76354ZM12.0493 21.0257C11.0821 21.0257 10.2974 20.2464 10.2974 19.2847V4.47486C10.2974 3.51444 11.0821 2.73519 12.0493 2.73519H14.0481C16.6828 2.73519 18.6333 5.38465 16.9484 7.06038L12.0614 11.9197L16.2562 16.2835C18.2899 18.3988 15.9074 21.0257 13.6511 21.0257H12.0493ZM18.3932 2.73519H20.0821C22.7154 2.73519 24.6659 5.38465 22.9823 7.06038L18.094 11.9197L27.0792 21.0217L17.5977 21.0203C19.634 21.0203 20.9205 17.6169 18.7406 15.3631L15.4111 11.9197L19.2866 7.95286C21.3739 5.81624 19.8594 3.06687 18.3932 2.73519ZM28.7198 19.2847L21.4437 11.9197L25.3205 7.95286C27.4078 5.81624 25.892 3.06687 24.4258 2.73519H26.9638C27.9324 2.73519 28.7171 3.51444 28.7171 4.47486L28.7198 19.2847ZM2.00173 30.1329V31.4597H2.59735C2.90723 31.4597 3.14198 31.4011 3.30162 31.2865C3.46125 31.1719 3.54174 31.0041 3.54174 30.7843C3.54174 30.5672 3.46796 30.4047 3.32174 30.2954C3.17552 30.1875 2.95686 30.1329 2.66576 30.1329H2.00173ZM2.00173 27.8711V29.1326H2.46186C2.78247 29.1326 3.02125 29.0779 3.18089 28.9714C3.33918 28.8635 3.41833 28.6996 3.41833 28.4799C3.41833 28.28 3.34454 28.1295 3.1943 28.0256C3.0454 27.9231 2.82405 27.8711 2.5343 27.8711H2.00173ZM0.518066 26.8534H2.84552C3.53369 26.8534 4.0515 26.976 4.3976 27.2211C4.74504 27.4675 4.91809 27.8325 4.91809 28.3173C4.91809 28.6424 4.82687 28.9141 4.64577 29.1299C4.46467 29.3457 4.2004 29.5015 3.85296 29.5961C4.24333 29.668 4.54248 29.8199 4.75175 30.0517C4.96102 30.2835 5.06565 30.5792 5.06565 30.9388C5.06565 31.469 4.87516 31.8619 4.49284 32.1177C4.11187 32.3721 3.5243 32.5 2.73015 32.5H0.518066V26.8534H0.518066ZM8.31201 28.1135L7.57554 30.2302H9.02433L8.31201 28.1135ZM7.42798 26.8534H9.2564L11.4095 32.5H9.78897L9.38519 31.3038H7.19591L6.772 32.5H5.27224L7.42798 26.8534ZM11.7368 26.8534H13.6296L15.2756 30.2395C15.3319 30.3527 15.3977 30.5112 15.4728 30.7137C15.5466 30.9162 15.6297 31.1653 15.7196 31.4597C15.6727 31.1813 15.6364 30.9255 15.6136 30.6924C15.5908 30.4593 15.5801 30.2462 15.5801 30.053V26.8534H16.9484V32.5H15.0636L13.3533 28.9914C13.2741 28.8302 13.2003 28.6544 13.1333 28.4652C13.0675 28.276 13.0058 28.0696 12.9495 27.8471C13.0031 28.1841 13.042 28.4932 13.0675 28.7756C13.093 29.0566 13.1064 29.3057 13.1064 29.5202V32.5H11.7368V26.8534ZM18.0243 26.8534H19.5401V29.2937L21.3015 26.8534H22.9984L20.9098 29.4483L23.2117 32.5H21.3283L19.5401 29.8812V32.5H18.0243V26.8534ZM27.6225 30.1329V31.4597H28.2194C28.528 31.4597 28.7627 31.4011 28.9224 31.2865C29.0833 31.1719 29.1625 31.0041 29.1625 30.7843C29.1625 30.5672 29.09 30.4047 28.9425 30.2954C28.7963 30.1875 28.5776 30.1329 28.2865 30.1329H27.6225ZM27.6225 27.8711V29.1326H28.0826C28.4032 29.1326 28.6433 29.0779 28.8016 28.9714C28.9599 28.8635 29.0404 28.6996 29.0404 28.4799C29.0404 28.28 28.9653 28.1295 28.815 28.0256C28.6661 27.9231 28.4461 27.8711 28.155 27.8711H27.6225ZM26.1388 26.8534H28.4676C29.1558 26.8534 29.6722 26.976 30.0197 27.2211C30.3658 27.4675 30.5388 27.8325 30.5388 28.3173C30.5388 28.6424 30.449 28.9141 30.2679 29.1299C30.0854 29.3457 29.8211 29.5015 29.475 29.5961C29.8641 29.668 30.1632 29.8199 30.3725 30.0517C30.5818 30.2835 30.6864 30.5792 30.6864 30.9388C30.6864 31.469 30.4959 31.8619 30.1149 32.1177C29.734 32.3721 29.145 32.5 28.3509 32.5H26.1388V26.8534ZM33.0648 27.8471V29.2951H33.5974C33.9247 29.2951 34.1715 29.2351 34.3352 29.1179C34.4989 28.9994 34.5807 28.8222 34.5807 28.5864C34.5807 28.332 34.4895 28.1455 34.307 28.0256C34.1246 27.9057 33.8362 27.8471 33.4404 27.8471H33.0648ZM31.5825 26.8534H33.8415C34.5941 26.8534 35.1521 26.9746 35.517 27.2171C35.8819 27.4595 36.0644 27.8285 36.0644 28.324C36.0644 28.6903 35.9678 28.9914 35.7759 29.2271C35.5828 29.4629 35.3051 29.6201 34.9415 29.7C35.2407 29.8079 35.4808 30.117 35.6632 30.6258L36.342 32.5H34.7618L34.2614 30.9548C34.1809 30.7057 34.0723 30.5339 33.9328 30.438C33.7946 30.3434 33.5786 30.2954 33.2848 30.2954H33.0648V32.5H31.5825V26.8534ZM36.9658 26.8534H38.4817V32.5H36.9658V26.8534Z" fill="#1F4396"/>
</g>
<defs>
<clipPath id="clip0_34_529">
<rect width="38" height="32" fill="white" transform="translate(0.5 0.5)"/>
</clipPath>
</defs>
</svg>
