<svg width="46" height="46" viewBox="0 0 46 46" fill="none" xmlns="http://www.w3.org/2000/svg">
<path d="M8.16298 31.8043C6.01979 28.1914 5.26922 23.9204 6.05222 19.7932C6.83523 15.6661 9.09794 11.9667 12.4155 9.38981C15.733 6.81291 19.8771 5.53573 24.0697 5.79809C28.2623 6.06045 32.2149 7.8443 35.1853 10.8147C38.1557 13.7851 39.9395 17.7376 40.2019 21.9302C40.4643 26.1228 39.1871 30.2669 36.6102 33.5845C34.0334 36.902 30.334 39.1647 26.2069 39.9478C22.0797 40.7308 17.8087 39.9803 14.1958 37.8371L14.1958 37.8369L8.23799 39.5391C7.99149 39.6096 7.73065 39.6128 7.48249 39.5485C7.23432 39.4842 7.00787 39.3547 6.8266 39.1734C6.64533 38.9921 6.51583 38.7657 6.45152 38.5175C6.38722 38.2694 6.39045 38.0085 6.46088 37.762L8.16311 31.8042L8.16298 31.8043Z" stroke="#0B132A" stroke-linecap="round" stroke-linejoin="round"/>
<path d="M14.3748 25.1635C15.5656 25.1635 16.531 24.1981 16.531 23.0072C16.531 21.8163 15.5656 20.851 14.3748 20.851C13.1839 20.851 12.2185 21.8163 12.2185 23.0072C12.2185 24.1981 13.1839 25.1635 14.3748 25.1635Z" fill="#0B132A"/>
<path d="M23 25.1635C24.1909 25.1635 25.1562 24.1981 25.1562 23.0072C25.1562 21.8163 24.1909 20.851 23 20.851C21.8091 20.851 20.8438 21.8163 20.8438 23.0072C20.8438 24.1981 21.8091 25.1635 23 25.1635Z" fill="#0B132A"/>
<path d="M31.6252 25.1635C32.8161 25.1635 33.7815 24.1981 33.7815 23.0072C33.7815 21.8163 32.8161 20.851 31.6252 20.851C30.4344 20.851 29.469 21.8163 29.469 23.0072C29.469 24.1981 30.4344 25.1635 31.6252 25.1635Z" fill="#0B132A"/>
</svg>
