<svg width="17" height="16" viewBox="0 0 17 16" fill="none" xmlns="http://www.w3.org/2000/svg">
<path fill-rule="evenodd" clip-rule="evenodd" d="M8.66456 14.6666C7.76123 14.6666 6.88056 14.6566 6.00923 14.6386C4.89456 14.6166 4.12323 13.8939 3.99723 12.7526C3.78723 10.8593 3.42789 6.3966 3.42456 6.35194C3.40189 6.0766 3.60723 5.83527 3.88256 5.81327C4.15389 5.80594 4.39923 5.9966 4.42123 6.27127C4.42456 6.3166 4.78323 10.7639 4.99123 12.6426C5.06256 13.2913 5.41256 13.6259 6.02989 13.6386C7.69656 13.6739 9.39723 13.6759 11.2306 13.6426C11.8866 13.6299 12.2412 13.3019 12.3146 12.6379C12.5212 10.7753 12.8812 6.3166 12.8852 6.27127C12.9072 5.9966 13.1506 5.8046 13.4232 5.81327C13.6986 5.83594 13.9039 6.0766 13.8819 6.35194C13.8779 6.39727 13.5166 10.8713 13.3086 12.7479C13.1792 13.9126 12.4099 14.6213 11.2486 14.6426C10.3599 14.6579 9.50256 14.6666 8.66456 14.6666Z" fill="#D00000"/>
<path fill-rule="evenodd" clip-rule="evenodd" d="M14.3053 4.65942H3C2.724 4.65942 2.5 4.43542 2.5 4.15942C2.5 3.88342 2.724 3.65942 3 3.65942H14.3053C14.5813 3.65942 14.8053 3.88342 14.8053 4.15942C14.8053 4.43542 14.5813 4.65942 14.3053 4.65942Z" fill="#D00000"/>
<path fill-rule="evenodd" clip-rule="evenodd" d="M12.1274 4.6595C11.3687 4.6595 10.71 4.11883 10.5607 3.37483L10.3987 2.56416C10.3647 2.44083 10.224 2.3335 10.064 2.3335H7.24204C7.08204 2.3335 6.94138 2.44083 6.90071 2.59483L6.74538 3.37483C6.59671 4.11883 5.93738 4.6595 5.17871 4.6595C4.90271 4.6595 4.67871 4.4355 4.67871 4.1595C4.67871 3.8835 4.90271 3.6595 5.17871 3.6595C5.46271 3.6595 5.70938 3.45683 5.76538 3.17816L5.92738 2.3675C6.09204 1.74616 6.63004 1.3335 7.24204 1.3335H10.064C10.676 1.3335 11.214 1.74616 11.372 2.3375L11.5414 3.17816C11.5967 3.45683 11.8434 3.6595 12.1274 3.6595C12.4034 3.6595 12.6274 3.8835 12.6274 4.1595C12.6274 4.4355 12.4034 4.6595 12.1274 4.6595Z" fill="#D00000"/>
</svg>
