<svg width="70" height="70" viewBox="0 0 70 70" fill="none" xmlns="http://www.w3.org/2000/svg">
<g filter="url(#filter0_d_127_2477)">
<circle cx="34.8001" cy="21.7999" r="16.7999" fill="#0B132A"/>
</g>
<path d="M34.8 5C25.5215 5 18 12.5215 18 21.8C18 31.0785 25.5215 38.6 34.8 38.6C44.0785 38.6 51.6 31.0785 51.6 21.8C51.6 12.5215 44.0785 5 34.8 5ZM38.7795 16.6095H36.2543C35.955 16.6095 35.6225 17.0033 35.6225 17.5265V19.35H38.7813L38.3035 21.9505H35.6225V29.7573H32.6423V21.9505H29.9385V19.35H32.6423V17.8205C32.6423 15.626 34.1648 13.8428 36.2543 13.8428H38.7795V16.6095Z" fill="#FF8906"/>
<defs>
<filter id="filter0_d_127_2477" x="0.00012207" y="0" width="69.5999" height="69.5999" filterUnits="userSpaceOnUse" color-interpolation-filters="sRGB">
<feFlood flood-opacity="0" result="BackgroundImageFix"/>
<feColorMatrix in="SourceAlpha" type="matrix" values="0 0 0 0 0 0 0 0 0 0 0 0 0 0 0 0 0 0 127 0" result="hardAlpha"/>
<feOffset dy="13"/>
<feGaussianBlur stdDeviation="9"/>
<feColorMatrix type="matrix" values="0 0 0 0 0.0658854 0 0 0 0 0.0730469 0 0 0 0 0.1375 0 0 0 0.08 0"/>
<feBlend mode="normal" in2="BackgroundImageFix" result="effect1_dropShadow_127_2477"/>
<feBlend mode="normal" in="SourceGraphic" in2="effect1_dropShadow_127_2477" result="shape"/>
</filter>
</defs>
</svg>
