<svg width="17" height="18" viewBox="0 0 17 18" fill="none" xmlns="http://www.w3.org/2000/svg">
<path fill-rule="evenodd" clip-rule="evenodd" d="M3.19523 2.7002C2.59036 2.7002 2.09961 3.1992 2.09961 3.81348V4.46871C2.09961 4.92372 2.27264 5.3613 2.58216 5.69043L5.97418 9.29722L5.97567 9.29495C6.63051 9.96534 6.99895 10.8716 6.99895 11.8165V15.0168C6.99895 15.2307 7.22269 15.3672 7.4084 15.2663L9.3401 14.2137C9.63171 14.0545 9.8137 13.745 9.8137 13.4091V11.8082C9.8137 10.8686 10.1769 9.9661 10.8258 9.29722L14.2178 5.69043C14.5266 5.3613 14.6996 4.92372 14.6996 4.46871V3.81348C14.6996 3.1992 14.2096 2.7002 13.6047 2.7002H3.19523Z" stroke="#130F26" stroke-width="1.5" stroke-linecap="round" stroke-linejoin="round"/>
</svg>
