<svg width="39" height="13" viewBox="0 0 39 13" fill="none" xmlns="http://www.w3.org/2000/svg">
<g clip-path="url(#clip0_34_567)">
<path d="M20.9483 11.0733C20.9091 11.8099 20.5813 12.3139 19.9529 12.6197C19.7702 12.7081 19.6 12.638 19.517 12.4509C19.4528 12.306 19.5264 12.1419 19.6981 12.065C20.1434 11.8664 20.3386 11.4591 20.3303 11.0754C20.3198 10.6085 20.0411 10.2525 19.6021 10.0994C19.1793 9.95245 18.7377 10.0952 18.4256 10.4805C18.186 10.7764 18.1656 11.2877 18.376 11.6301C18.4924 11.8204 18.6464 11.9636 18.8489 12.0593C19.0399 12.1492 19.1073 12.3155 19.03 12.4801C18.9512 12.6479 18.7643 12.7018 18.5769 12.6066C18.0737 12.3526 17.7439 11.9573 17.6431 11.3964C17.4839 10.5097 18.0367 9.71458 18.8332 9.49396C19.7749 9.23309 20.6789 9.82907 20.8898 10.6912C20.9227 10.8271 20.9326 10.9693 20.9483 11.0733Z" fill="#00AA11"/>
<path d="M23.3526 10.1731C23.3579 10.1025 23.3615 10.0466 23.3662 9.98226C23.5291 9.98226 23.6857 9.98226 23.8522 9.98226C23.8558 10.0178 23.8626 10.0518 23.8626 10.0858C23.8631 10.6608 23.8657 11.2364 23.8616 11.812C23.8584 12.167 23.7217 12.4592 23.4048 12.638C23.0081 12.8628 22.3891 12.7922 22.0346 12.4937C22.0012 12.4655 21.9694 12.4357 21.9302 12.4007C22.0357 12.2966 22.139 12.1947 22.2528 12.0828C22.4298 12.225 22.6281 12.2966 22.8599 12.2898C23.2174 12.2789 23.3939 12.0828 23.3474 11.7012C23.0478 11.9359 22.7179 11.9448 22.3823 11.8324C22.1824 11.7655 22.0247 11.6317 21.9125 11.4445C21.676 11.0498 21.7371 10.549 22.0644 10.2431C22.4152 9.91534 22.9455 9.88188 23.3526 10.1731ZM23.3323 10.9379C23.3323 10.6044 23.1517 10.4224 22.8228 10.4256C22.5133 10.4282 22.305 10.6316 22.2935 10.9139C22.2789 11.2824 22.518 11.4482 22.8343 11.444C23.1595 11.4393 23.3323 11.2673 23.3323 10.9379Z" fill="black"/>
<path d="M31.5961 9.97658C31.2965 10.2594 31.0235 10.5177 30.7463 10.7796C31.0282 11.1549 31.3038 11.5219 31.5982 11.914C31.3967 11.914 31.2302 11.9193 31.0642 11.9104C31.0256 11.9083 30.9797 11.867 30.9536 11.832C30.8001 11.627 30.6524 11.4179 30.502 11.2109C30.477 11.1759 30.4498 11.1424 30.405 11.0828C30.2969 11.2067 30.1591 11.3039 30.1121 11.4346C30.0631 11.5711 30.1012 11.7389 30.1012 11.9146C30.0114 11.9146 29.9336 11.9146 29.8558 11.9146C29.7817 11.9146 29.7071 11.9146 29.6209 11.9146C29.6173 11.8565 29.6126 11.81 29.6126 11.7629C29.6121 11.0373 29.6157 10.3112 29.6084 9.58501C29.6074 9.44542 29.6502 9.40517 29.7817 9.41928C29.8814 9.43026 29.9827 9.42137 30.0996 9.42137C30.0996 9.86261 30.0996 10.2882 30.0996 10.7498C30.2515 10.6123 30.3783 10.4999 30.5026 10.3849C30.6294 10.2683 30.7526 10.1481 30.88 10.0325C30.9076 10.0074 30.9457 9.97971 30.9802 9.97867C31.1723 9.97396 31.3649 9.97658 31.5961 9.97658Z" fill="black"/>
<path d="M27.8454 11.1099C27.8756 11.3148 28.0714 11.4716 28.2969 11.4894C28.4874 11.5046 28.6659 11.4769 28.8215 11.353C28.8465 11.3331 28.8998 11.3174 28.9212 11.3305C29.0256 11.3948 29.1232 11.469 29.2328 11.5464C28.8951 11.8836 28.5104 11.9761 28.0688 11.8669C27.7091 11.778 27.4487 11.5757 27.3641 11.2066C27.1809 10.403 27.7989 9.87189 28.513 9.99318C28.9274 10.0632 29.1853 10.3069 29.2824 10.7125C29.3116 10.8338 29.3033 10.964 29.3132 11.1099C29.0538 11.1099 28.8121 11.1099 28.5704 11.1099C28.3324 11.1099 28.0938 11.1099 27.8454 11.1099ZM28.8042 10.7397C28.7708 10.4987 28.5793 10.3837 28.2572 10.3989C28.0265 10.4093 27.8699 10.5411 27.8584 10.7397C28.1716 10.7397 28.4838 10.7397 28.8042 10.7397Z" fill="black"/>
<path d="M25.1801 9.94873C25.7512 9.97173 26.1756 10.3278 26.2184 10.8824C26.2471 11.2609 26.0811 11.5647 25.7491 11.7686C25.3686 12.0022 24.7652 11.9395 24.4431 11.6279C23.9598 11.16 24.1075 10.3351 24.7265 10.0763C24.8701 10.0162 25.0282 9.99055 25.1801 9.94873ZM25.6995 10.9462C25.6985 10.6315 25.498 10.4234 25.1948 10.4255C24.8544 10.4281 24.6764 10.6477 24.665 10.9473C24.654 11.2353 24.9004 11.4664 25.189 11.4643C25.4975 11.4617 25.7006 11.2557 25.6995 10.9462Z" fill="black"/>
<path d="M26.5176 9.97754C26.6925 9.97754 26.8465 9.97754 27.0219 9.97754C27.0219 10.0209 27.0219 10.0628 27.0219 10.1046C27.0219 10.8046 27.0219 11.5046 27.0213 12.2046C27.0213 12.5575 26.8157 12.763 26.4628 12.764C26.3271 12.7645 26.1909 12.7645 26.0405 12.7645C26.0405 12.6814 26.0405 12.6119 26.0405 12.5423C26.0405 12.4723 26.0405 12.4017 26.0405 12.3071C26.1314 12.3071 26.2138 12.3102 26.2958 12.306C26.4821 12.2972 26.5176 12.259 26.5176 12.075C26.5176 11.4283 26.5176 10.7816 26.5176 10.1349C26.5176 10.0868 26.5176 10.0392 26.5176 9.97754Z" fill="black"/>
<path d="M18.6639 11.0804C18.6258 10.797 18.9844 10.4562 19.2887 10.476C19.6259 10.4985 19.9047 10.7615 19.9026 11.0987C19.9005 11.4343 19.6092 11.7307 19.2741 11.7219C18.9385 11.713 18.6441 11.4469 18.6639 11.0804Z" fill="#00AA11"/>
<path d="M7.00049 10.2124H7.5209C7.80433 10.2124 7.97189 10.3724 7.97189 10.6291C7.97189 10.8899 7.80642 11.0426 7.5209 11.0426H7.15865V11.5638H7.00049V10.2124ZM7.5115 10.892C7.71769 10.892 7.81216 10.8089 7.81216 10.6291C7.81216 10.4497 7.71351 10.363 7.5115 10.363H7.15865V10.892H7.5115Z" fill="black"/>
<path d="M8.53097 10.5114C8.82014 10.5114 9.01328 10.7294 9.01328 11.0519C9.01328 11.3745 8.82014 11.5925 8.53097 11.5925C8.24388 11.5925 8.05127 11.3745 8.05127 11.0519C8.05127 10.7294 8.24388 10.5114 8.53097 10.5114ZM8.53097 10.6525C8.32896 10.6525 8.2016 10.8067 8.2016 11.0519C8.2016 11.2971 8.32896 11.4513 8.53097 11.4513C8.7335 11.4513 8.86295 11.2971 8.86295 11.0519C8.86295 10.8067 8.7335 10.6525 8.53097 10.6525Z" fill="black"/>
<path d="M9.11084 10.54H9.25908L9.44386 11.3357H9.44804L9.72155 10.54H9.85831L10.1324 11.3357H10.136L10.3213 10.54H10.4695L10.2247 11.5637H10.0822L9.79307 10.7277H9.78889L9.49815 11.5637H9.35513L9.11084 10.54Z" fill="black"/>
<path d="M11.0398 10.5114C11.3138 10.5114 11.4965 10.7179 11.4965 11.019V11.0964H10.7198C10.724 11.2934 10.8492 11.4555 11.0361 11.4555C11.1807 11.4555 11.2616 11.4032 11.3483 11.2506L11.4735 11.3259C11.3869 11.5015 11.2386 11.5925 11.0398 11.5925C10.7563 11.5925 10.5674 11.3745 10.5674 11.0519C10.5674 10.7294 10.7626 10.5114 11.0398 10.5114ZM11.3446 10.9745C11.3425 10.8799 11.3117 10.8031 11.2559 10.7409C11.2 10.6792 11.1285 10.6483 11.0398 10.6483C10.8665 10.6483 10.7276 10.8031 10.724 10.9745H11.3446Z" fill="black"/>
<path d="M11.7114 10.5401H11.8539V10.6253H11.8576C11.8962 10.5615 11.9714 10.5228 12.0695 10.5228C12.1003 10.5228 12.1353 10.5286 12.1718 10.5385L12.1389 10.6948C12.1024 10.6833 12.0679 10.6776 12.0387 10.6776C11.9176 10.6776 11.8612 10.7586 11.8612 10.9494V11.5637H11.7114V10.5401Z" fill="black"/>
<path d="M12.7131 10.5114C12.9866 10.5114 13.1698 10.7179 13.1698 11.019V11.0964H12.3931C12.3968 11.2934 12.5221 11.4555 12.7089 11.4555C12.8535 11.4555 12.935 11.4032 13.0216 11.2506L13.1469 11.3259C13.0602 11.5015 12.9115 11.5925 12.7131 11.5925C12.4297 11.5925 12.2407 11.3745 12.2407 11.0519C12.2407 10.7294 12.4354 10.5114 12.7131 10.5114ZM13.0174 10.9745C13.0159 10.8799 12.9851 10.8031 12.9292 10.7409C12.8728 10.6792 12.8018 10.6483 12.7131 10.6483C12.5398 10.6483 12.401 10.8031 12.3968 10.9745H13.0174Z" fill="black"/>
<path d="M13.8035 10.5112C13.9273 10.5112 14.0369 10.5635 14.1042 10.6482H14.1084V10.1542H14.2587V11.5636H14.1141V11.4611H14.1099C14.0426 11.5443 13.9288 11.5924 13.8035 11.5924C13.5379 11.5924 13.3447 11.3702 13.3447 11.0518C13.3447 10.7334 13.5379 10.5112 13.8035 10.5112ZM14.1084 10.9514C14.1084 10.7852 13.9732 10.6524 13.8035 10.6524C13.6203 10.6524 13.4951 10.8103 13.4951 11.0518C13.4951 11.2933 13.6203 11.4512 13.8135 11.4512C13.9753 11.4512 14.1084 11.3163 14.1084 11.1501V10.9514Z" fill="black"/>
<path d="M15.1782 11.4613V11.5637H15.0342V10.1543H15.184V10.6483H15.1882C15.2555 10.5636 15.3656 10.5114 15.4888 10.5114C15.755 10.5114 15.9476 10.7335 15.9476 11.0519C15.9476 11.3703 15.755 11.5925 15.4888 11.5925C15.3635 11.5925 15.2498 11.5444 15.1824 11.4613H15.1782ZM15.4888 10.6525C15.3192 10.6525 15.184 10.7853 15.184 10.9516V11.1502C15.184 11.3165 15.3171 11.4513 15.4789 11.4513C15.672 11.4513 15.7973 11.2935 15.7973 11.0519C15.7973 10.8104 15.672 10.6525 15.4888 10.6525Z" fill="black"/>
<path d="M16.3906 11.4764L15.9976 10.54H16.1578L16.4679 11.3028H16.4715L16.7842 10.54H16.9439L16.3311 11.9976H16.175L16.3906 11.4764Z" fill="black"/>
<path d="M4.44588 0.230103C6.73527 0.230103 8.59143 2.02431 8.59143 4.23728C8.59143 6.45025 6.73527 8.24446 4.44588 8.24446C2.15596 8.24446 0.299805 6.45025 0.299805 4.23728C0.299805 2.02431 2.15596 0.230103 4.44588 0.230103Z" fill="#00AED6"/>
<path fill-rule="evenodd" clip-rule="evenodd" d="M6.86406 4.11389C6.83222 3.60365 6.38332 3.2126 5.85508 3.23561H3.23631C3.14079 3.23561 3.06354 3.16085 3.06354 3.06831C3.06354 2.9763 3.14079 2.90154 3.23631 2.90154H5.88953C5.87439 2.55598 5.63011 2.25904 5.28508 2.16703C4.51151 2.03319 3.71966 2.03319 2.94609 2.16703C2.50659 2.27158 2.17774 2.62499 2.11719 3.05838C1.99609 3.84466 1.99609 4.64348 2.11719 5.42923C2.20958 5.88824 2.58645 6.24321 3.06354 6.32111C4.02241 6.43769 4.99277 6.43769 5.95164 6.32111C6.37914 6.23746 6.70225 5.89817 6.7534 5.47942C6.84109 5.0293 6.87816 4.57133 6.86406 4.11389ZM6.00019 4.67485V4.82175C6.00019 4.91376 5.92294 4.98852 5.82741 4.98852C5.73189 4.98852 5.65464 4.91376 5.65464 4.82175V4.67485C5.59879 4.62779 5.56747 4.55931 5.56851 4.48769C5.56851 4.34915 5.68439 4.23727 5.82741 4.23727C5.97044 4.23727 6.08631 4.34915 6.08631 4.48769C6.08579 4.55879 6.05447 4.62675 6.00019 4.67485Z" fill="white"/>
<path d="M20.3999 3.78674C20.4057 3.08411 19.821 2.51009 19.0939 2.50434C18.3668 2.49911 17.7733 3.06372 17.7676 3.76635C17.7618 4.46898 18.3465 5.04352 19.0736 5.04875C19.0804 5.04875 19.0871 5.04875 19.0939 5.04875C19.7835 5.08482 20.3728 4.57301 20.4098 3.90646C20.4119 3.86672 20.4119 3.82647 20.4104 3.78674H20.3999ZM16.4893 3.78674C16.4893 2.45101 17.5807 1.43262 19.0939 1.43262C20.6071 1.43262 21.6991 2.45728 21.6991 3.78674C21.6991 5.11567 20.6176 6.14399 19.0939 6.14399C17.5703 6.14399 16.4893 5.1188 16.4893 3.78674Z" fill="black"/>
<path d="M14.4167 4.03011C14.4167 4.58113 13.8363 5.03178 13.1008 5.03178C12.4249 5.09817 11.8214 4.62191 11.7531 3.96842C11.7463 3.90255 11.7452 3.83616 11.7499 3.76976C11.7499 3.04152 12.3027 2.54069 13.1525 2.54069C13.8436 2.54069 14.4167 2.99813 14.4167 3.51569V4.03011ZM14.4684 1.42872V1.95621C14.0482 1.58712 13.4913 1.39839 12.9244 1.43237C11.5839 1.44388 10.5076 2.50409 10.5196 3.79956C10.5322 5.09504 11.6288 6.13591 12.9693 6.12388C13.521 6.14793 14.0581 5.94823 14.4512 5.57286V6.02351C14.4512 6.63465 13.9057 7.08216 13.1869 7.08216C12.6383 7.12032 12.0976 6.93682 11.6946 6.57453L10.8547 7.3561C11.4842 7.95312 12.3398 8.27412 13.2214 8.24432C14.6934 8.24432 15.7018 7.28918 15.7018 6.01723V1.42872H14.4684Z" fill="black"/>
<path d="M22.4595 1.5659H23.696V1.96009H23.7133C24.1188 1.6025 24.6544 1.41534 25.2025 1.43887C26.5487 1.48801 27.5989 2.58273 27.5482 3.88343C27.5002 5.11617 26.4777 6.10424 25.2025 6.15077C24.6789 6.16227 24.1679 5.99602 23.7582 5.67973V7.91048H22.4699L22.4595 1.5659ZM25.002 2.54091C24.3109 2.54091 23.7482 3.00514 23.7482 3.50964V4.07372C23.7482 4.61115 24.3041 5.05552 25.0088 5.05552C25.7276 5.09107 26.3399 4.55731 26.3769 3.86304C26.414 3.16878 25.8617 2.57698 25.143 2.54091C25.0986 2.53882 25.0537 2.53882 25.0088 2.54091H25.002Z" fill="black"/>
<path d="M30.0219 3.356C30.8685 3.24569 31.1207 3.12858 31.1207 2.90169C31.1207 2.60788 30.7996 2.43066 30.3017 2.43066C29.7656 2.38831 29.2776 2.73022 29.1512 3.23575L27.9355 2.99161C28.1083 2.08353 29.0755 1.43579 30.2672 1.43579C31.615 1.43579 32.4507 2.10339 32.4507 3.18557V6.02065H31.2934V5.52662H31.2762C30.8837 5.95373 30.3079 6.18063 29.7181 6.14089C28.6987 6.14089 27.9904 5.60294 27.9904 4.80517C27.9904 4.00687 28.5708 3.54943 30.0219 3.356ZM31.2245 3.82651H31.2073C31.093 3.987 30.8618 4.08058 30.2223 4.18723C29.466 4.3242 29.1862 4.46797 29.1862 4.72832C29.1862 4.98867 29.4107 5.1157 29.8977 5.1157C30.6404 5.1157 31.2141 4.78164 31.2141 4.35766L31.2245 3.82651Z" fill="black"/>
<path d="M34.7826 5.76994L32.6509 1.56567H34.0712L35.4701 4.47761H35.491L36.8726 1.56567H38.2997L35.1073 7.91024H33.6875L34.7826 5.76994Z" fill="black"/>
</g>
<defs>
<clipPath id="clip0_34_567">
<rect width="38" height="12.5469" fill="white" transform="translate(0.299805 0.226562)"/>
</clipPath>
</defs>
</svg>
