<svg width="70" height="70" viewBox="0 0 70 70" fill="none" xmlns="http://www.w3.org/2000/svg">
<g filter="url(#filter0_d_127_2483)">
<circle cx="35.0003" cy="21.7999" r="16.7999" fill="#0B132A"/>
</g>
<path d="M40.2502 21.8C40.2502 23.1924 39.6971 24.5277 38.7125 25.5123C37.7279 26.4969 36.3926 27.05 35.0002 27.05C33.6078 27.05 32.2725 26.4969 31.2879 25.5123C30.3033 24.5277 29.7502 23.1924 29.7502 21.8C29.7502 21.5008 29.7817 21.2085 29.8359 20.925H28.0002V27.9198C28.0002 28.4063 28.3939 28.8 28.8804 28.8H41.1217C41.3549 28.7995 41.5783 28.7066 41.743 28.5416C41.9077 28.3765 42.0002 28.1529 42.0002 27.9198V20.925H40.1644C40.2187 21.2085 40.2502 21.5008 40.2502 21.8ZM35.0002 25.3C35.4599 25.2999 35.9152 25.2092 36.3399 25.0332C36.7646 24.8571 37.1504 24.5992 37.4754 24.274C37.8004 23.9488 38.0582 23.5628 38.234 23.138C38.4099 22.7133 38.5003 22.258 38.5002 21.7983C38.5001 21.3385 38.4094 20.8833 38.2334 20.4586C38.0573 20.0339 37.7994 19.648 37.4742 19.323C37.149 18.998 36.763 18.7402 36.3382 18.5644C35.9135 18.3886 35.4582 18.2981 34.9984 18.2983C34.07 18.2985 33.1796 18.6675 32.5232 19.3243C31.8668 19.981 31.4982 20.8715 31.4984 21.8C31.4987 22.7285 31.8677 23.6189 32.5244 24.2752C33.1812 24.9316 34.0717 25.3002 35.0002 25.3ZM39.2002 18.125H41.2984C41.4378 18.125 41.5716 18.0697 41.6703 17.9713C41.769 17.8729 41.8247 17.7394 41.8252 17.6V15.5018C41.8252 15.362 41.7697 15.2281 41.6709 15.1293C41.5721 15.0305 41.4382 14.975 41.2984 14.975H39.2002C39.0605 14.975 38.9265 15.0305 38.8277 15.1293C38.7289 15.2281 38.6734 15.362 38.6734 15.5018V17.6C38.6752 17.8888 38.9114 18.125 39.2002 18.125ZM35.0002 5C30.5446 5 26.2714 6.76999 23.1208 9.92061C19.9702 13.0712 18.2002 17.3444 18.2002 21.8C18.2002 26.2556 19.9702 30.5288 23.1208 33.6794C26.2714 36.83 30.5446 38.6 35.0002 38.6C37.2064 38.6 39.391 38.1655 41.4293 37.3212C43.4676 36.4769 45.3196 35.2394 46.8796 33.6794C48.4396 32.1194 49.6771 30.2674 50.5214 28.2291C51.3657 26.1908 51.8002 24.0062 51.8002 21.8C51.8002 19.5938 51.3657 17.4092 50.5214 15.3709C49.6771 13.3326 48.4396 11.4806 46.8796 9.92061C45.3196 8.36058 43.4676 7.1231 41.4293 6.27882C39.391 5.43454 37.2064 5 35.0002 5ZM43.7502 28.6058C43.7502 29.675 42.8752 30.55 41.8059 30.55H28.1944C27.1252 30.55 26.2502 29.675 26.2502 28.6058V14.9943C26.2502 13.925 27.1252 13.05 28.1944 13.05H41.8059C42.8752 13.05 43.7502 13.925 43.7502 14.9943V28.6058Z" fill="#FF8906"/>
<defs>
<filter id="filter0_d_127_2483" x="0.200317" y="0" width="69.5999" height="69.5999" filterUnits="userSpaceOnUse" color-interpolation-filters="sRGB">
<feFlood flood-opacity="0" result="BackgroundImageFix"/>
<feColorMatrix in="SourceAlpha" type="matrix" values="0 0 0 0 0 0 0 0 0 0 0 0 0 0 0 0 0 0 127 0" result="hardAlpha"/>
<feOffset dy="13"/>
<feGaussianBlur stdDeviation="9"/>
<feColorMatrix type="matrix" values="0 0 0 0 0.0658854 0 0 0 0 0.0730469 0 0 0 0 0.1375 0 0 0 0.08 0"/>
<feBlend mode="normal" in2="BackgroundImageFix" result="effect1_dropShadow_127_2483"/>
<feBlend mode="normal" in="SourceGraphic" in2="effect1_dropShadow_127_2483" result="shape"/>
</filter>
</defs>
</svg>
