<svg width="39" height="13" viewBox="0 0 39 13" fill="none" xmlns="http://www.w3.org/2000/svg">
<path fill-rule="evenodd" clip-rule="evenodd" d="M13.781 0.646655H18.6678L18.671 2.59509L17.4678 2.59189L20.3213 9.32344L23.1266 2.59829H21.8913L21.8881 0.653055L25.8032 0.649857L25.7968 1.76005L21.087 12.6956C19.9514 12.6988 19.2114 12.2893 18.8157 11.4318L14.9392 2.59829H13.7778L13.781 0.646655ZM7.05415 0.304321C10.4546 0.304321 13.2116 3.06541 13.2116 6.46957C13.2116 9.87374 10.4546 12.6316 7.05415 12.6316C3.65693 12.6316 0.899902 9.87374 0.899902 6.46957C0.899902 3.06541 3.65693 0.304321 7.05415 0.304321ZM7.03807 2.31995C9.18063 2.31995 10.9179 4.198 10.9179 6.51436C10.9179 8.83073 9.18063 10.7056 7.03807 10.7056C4.89228 10.7056 3.15507 8.83073 3.15507 6.51436C3.15507 4.198 4.89228 2.31995 7.03807 2.31995ZM32.7424 0.304321C36.1429 0.304321 38.8999 3.06541 38.8999 6.46957C38.8999 9.87374 36.1429 12.6316 32.7424 12.6316C29.3452 12.6316 26.5882 9.87374 26.5882 6.46957C26.5882 3.06541 29.3452 0.304321 32.7424 0.304321ZM32.7264 2.31995C34.8689 2.31995 36.6061 4.198 36.6061 6.51436C36.6061 8.83073 34.8689 10.7056 32.7264 10.7056C30.5806 10.7056 28.8433 8.83073 28.8433 6.51436C28.8433 4.198 30.5806 2.31995 32.7264 2.31995Z" fill="#4C3494"/>
</svg>
