<svg width="14" height="14" viewBox="0 0 14 14" fill="none" xmlns="http://www.w3.org/2000/svg">
<path fill-rule="evenodd" clip-rule="evenodd" d="M6.12607 7.00005C6.12607 7.68205 5.57341 8.23471 4.89141 8.23471C4.20941 8.23471 3.65674 7.68205 3.65674 7.00005C3.65674 6.31805 4.20941 5.76538 4.89141 5.76538H4.89341C5.57474 5.76605 6.12607 6.31871 6.12607 7.00005Z" stroke="#4F5665" stroke-linecap="round" stroke-linejoin="round"/>
<path d="M6.12793 7.00024H10.3399V8.23491" stroke="#4F5665" stroke-linecap="round" stroke-linejoin="round"/>
<path d="M8.45492 8.23491V7.00024" stroke="#4F5665" stroke-linecap="round" stroke-linejoin="round"/>
<path fill-rule="evenodd" clip-rule="evenodd" d="M0.833496 7.00016C0.833496 2.3755 2.3755 0.833496 7.00016 0.833496C11.6248 0.833496 13.1668 2.3755 13.1668 7.00016C13.1668 11.6248 11.6248 13.1668 7.00016 13.1668C2.3755 13.1668 0.833496 11.6248 0.833496 7.00016Z" stroke="#4F5665" stroke-linecap="round" stroke-linejoin="round"/>
</svg>
