<svg width="27" height="29" viewBox="0 0 27 29" fill="none" xmlns="http://www.w3.org/2000/svg">
<g clip-path="url(#clip0_34_620)">
<path d="M22.556 2.67924C21.1408 1.20674 18.5827 0.575439 15.31 0.575439H5.81189C5.48809 0.57545 5.17492 0.680907 4.92868 0.872849C4.68243 1.06479 4.51927 1.33063 4.46852 1.62257L0.513681 24.5202C0.435071 24.9717 0.818064 25.3806 1.31938 25.3806H7.18319L8.65584 16.8535L8.61014 17.1205C8.71505 16.5177 9.27974 16.0732 9.94843 16.0732H12.7349C18.2089 16.0732 22.4952 14.0434 23.7472 8.17188C23.7844 7.99822 23.8166 7.8292 23.8444 7.66408C23.6864 7.58768 23.6864 7.58768 23.8444 7.66408C24.2172 5.49389 23.8419 4.01666 22.556 2.67924Z" fill="#27346A"/>
<path d="M10.8996 6.8823C11.0599 6.81262 11.2352 6.77651 11.4128 6.7766H18.8591C19.7409 6.7766 20.5633 6.82899 21.3149 6.93941C21.5252 6.97002 21.7344 7.00657 21.9423 7.049C22.2368 7.10834 22.528 7.18096 22.8147 7.2666C23.1842 7.37925 23.5283 7.51045 23.8445 7.66408C24.2173 5.49306 23.8419 4.01666 22.556 2.67924C21.14 1.20674 18.5827 0.575439 15.31 0.575439H5.81108C5.14229 0.575439 4.57334 1.01992 4.46852 1.62257L0.513681 24.5193C0.435072 24.9716 0.818064 25.3799 1.31856 25.3799H7.18319L10.2385 7.69263C10.2685 7.51878 10.3444 7.35419 10.4596 7.21304C10.5747 7.07188 10.7257 6.95838 10.8996 6.8823Z" fill="#27346A"/>
<path d="M23.747 8.17186C22.495 14.0426 18.2088 16.0731 12.7347 16.0731H9.94741C9.27873 16.0731 8.71394 16.5177 8.61004 17.1205L6.77795 27.7229C6.7095 28.1181 7.04425 28.4761 7.48219 28.4761H12.4252C12.7084 28.4761 12.9822 28.3838 13.1975 28.2159C13.4128 28.0479 13.5553 27.8154 13.5996 27.5601L13.6477 27.3302L14.5794 21.9401L14.6394 21.6422C14.6836 21.3869 14.8262 21.1544 15.0415 20.9865C15.2567 20.8186 15.5305 20.7262 15.8137 20.7262H16.5534C21.3418 20.7262 25.0912 18.9503 26.1869 13.8142C26.6442 11.6679 26.4075 9.87588 25.1977 8.61718C24.8308 8.23593 24.3751 7.92107 23.8442 7.66406C23.8155 7.83002 23.7843 7.99821 23.747 8.17186Z" fill="#2790C3"/>
<path d="M22.5349 7.18713C22.3397 7.13509 22.1426 7.08901 21.944 7.04898C21.7361 7.00725 21.5269 6.97095 21.3167 6.94013C20.5643 6.82897 19.7425 6.77649 18.8599 6.77649H11.4144C11.2367 6.77612 11.0613 6.81255 10.9012 6.88302C10.7272 6.95887 10.576 7.0723 10.4608 7.2135C10.3456 7.3547 10.2698 7.5194 10.2401 7.69335L8.65752 16.8534L8.61182 17.1205C8.71592 16.5177 9.28061 16.0731 9.94939 16.0731H12.7367C18.2107 16.0731 22.4968 14.0434 23.7489 8.17186C23.7862 7.9982 23.8174 7.82992 23.8462 7.66406C23.5291 7.51126 23.1859 7.37923 22.8163 7.26733C22.7231 7.2391 22.6293 7.21237 22.535 7.18713" fill="#1F264F"/>
</g>
<defs>
<clipPath id="clip0_34_620">
<rect width="26" height="28" fill="white" transform="translate(0.5 0.5)"/>
</clipPath>
</defs>
</svg>
