<svg width="18" height="18" viewBox="0 0 18 18" fill="none" xmlns="http://www.w3.org/2000/svg">
<path fill-rule="evenodd" clip-rule="evenodd" d="M8.93765 2.5C9.1465 2.5 9.34681 2.58297 9.49449 2.73065C9.64217 2.87834 9.72515 3.07864 9.72515 3.2875V7.75H14.1876C14.3965 7.75 14.5968 7.83297 14.7445 7.98065C14.8922 8.12834 14.9751 8.32864 14.9751 8.5375C14.9751 8.74636 14.8922 8.94666 14.7445 9.09435C14.5968 9.24203 14.3965 9.325 14.1876 9.325H9.72515V13.7875C9.72515 13.9963 9.64217 14.1967 9.49449 14.3443C9.34681 14.492 9.1465 14.575 8.93765 14.575C8.72879 14.575 8.52848 14.492 8.3808 14.3443C8.23312 14.1967 8.15015 13.9963 8.15015 13.7875V9.325H3.68765C3.47879 9.325 3.27848 9.24203 3.1308 9.09435C2.98312 8.94666 2.90015 8.74636 2.90015 8.5375C2.90015 8.32864 2.98312 8.12834 3.1308 7.98065C3.27848 7.83297 3.47879 7.75 3.68765 7.75H8.15015V3.2875C8.15015 3.07864 8.23312 2.87834 8.3808 2.73065C8.52848 2.58297 8.72879 2.5 8.93765 2.5Z" fill="#0B132A"/>
</svg>
