<svg width="24" height="25" viewBox="0 0 24 25" fill="none" xmlns="http://www.w3.org/2000/svg">
<path d="M18 17.75H6.42139C6.24574 17.75 6.07567 17.6884 5.94082 17.5758C5.80597 17.4633 5.7149 17.307 5.68348 17.1342L3.18015 3.36584C3.14873 3.19303 3.05766 3.03673 2.92281 2.92419C2.78796 2.81164 2.61789 2.75 2.44225 2.75H0.75" stroke="#FF8906" stroke-linecap="round" stroke-linejoin="round"/>
<path d="M6.75 21.5C7.78553 21.5 8.625 20.6605 8.625 19.625C8.625 18.5895 7.78553 17.75 6.75 17.75C5.71447 17.75 4.875 18.5895 4.875 19.625C4.875 20.6605 5.71447 21.5 6.75 21.5Z" stroke="#FF8906" stroke-linecap="round" stroke-linejoin="round"/>
<path d="M18 21.5C19.0355 21.5 19.875 20.6605 19.875 19.625C19.875 18.5895 19.0355 17.75 18 17.75C16.9645 17.75 16.125 18.5895 16.125 19.625C16.125 20.6605 16.9645 21.5 18 21.5Z" stroke="#FF8906" stroke-linecap="round" stroke-linejoin="round"/>
<path d="M3.75 6.5H20.1013C20.2112 6.5 20.3197 6.52413 20.4192 6.57069C20.5187 6.61725 20.6068 6.6851 20.6772 6.76944C20.7475 6.85378 20.7986 6.95255 20.8266 7.05878C20.8546 7.165 20.8589 7.27608 20.8392 7.38416L19.612 14.1342C19.5806 14.307 19.4895 14.4633 19.3546 14.5758C19.2198 14.6884 19.0497 14.75 18.8741 14.75H5.25" stroke="#FF8906" stroke-linecap="round" stroke-linejoin="round"/>
</svg>
