<svg width="14" height="14" viewBox="0 0 14 14" fill="none" xmlns="http://www.w3.org/2000/svg">
<path d="M12.8059 5.13128L8.83873 4.55472L7.06529 0.959405C7.01685 0.860968 6.93716 0.78128 6.83873 0.732843C6.59185 0.610968 6.29185 0.71253 6.16841 0.959405L4.39498 4.55472L0.427788 5.13128C0.318413 5.14691 0.218413 5.19847 0.141851 5.27659C0.0492908 5.37173 -0.00171392 5.49972 4.3978e-05 5.63244C0.00180188 5.76516 0.0561785 5.89176 0.151226 5.98441L3.02154 8.78284L2.34341 12.7344C2.32751 12.8263 2.33768 12.9209 2.37278 13.0073C2.40787 13.0937 2.46648 13.1686 2.54196 13.2234C2.61744 13.2783 2.70677 13.3108 2.79982 13.3175C2.89287 13.3241 2.98592 13.3045 3.06841 13.261L6.61685 11.3953L10.1653 13.261C10.2622 13.3125 10.3747 13.3297 10.4825 13.311C10.7544 13.2641 10.9372 13.0063 10.8903 12.7344L10.2122 8.78284L13.0825 5.98441C13.1606 5.90784 13.2122 5.80784 13.2278 5.69847C13.27 5.42503 13.0794 5.17191 12.8059 5.13128Z" fill="#FF8906"/>
</svg>
