<svg width="16" height="16" viewBox="0 0 16 16" fill="none" xmlns="http://www.w3.org/2000/svg">
<path d="M3.99984 13C4.7362 13 5.33317 12.4031 5.33317 11.6667C5.33317 10.9303 4.7362 10.3334 3.99984 10.3334C3.26346 10.3334 2.6665 10.9303 2.6665 11.6667C2.6665 12.4031 3.26346 13 3.99984 13Z" stroke="#4F5665" stroke-linejoin="round"/>
<path d="M11.6668 13C12.4032 13 13.0002 12.4031 13.0002 11.6667C13.0002 10.9303 12.4032 10.3334 11.6668 10.3334C10.9305 10.3334 10.3335 10.9303 10.3335 11.6667C10.3335 12.4031 10.9305 13 11.6668 13Z" stroke="#4F5665" stroke-linejoin="round"/>
<path d="M2.6665 11.6667H0.666504V3.66675H10.3332V11.6667H5.33317" stroke="#4F5665" stroke-linecap="round" stroke-linejoin="round"/>
<path d="M10.3335 11.6667V6H13.1906L15.3335 8.83333V11.6667H13.2706" stroke="#4F5665" stroke-linecap="round" stroke-linejoin="round"/>
</svg>
