<svg width="16" height="16" viewBox="0 0 16 16" fill="none" xmlns="http://www.w3.org/2000/svg">
<path d="M11.3332 7.33341H11.9998C12.1766 7.33341 12.3462 7.26318 12.4712 7.13815C12.5963 7.01313 12.6665 6.84356 12.6665 6.66675V6.00008C12.6665 5.82327 12.5963 5.6537 12.4712 5.52868C12.3462 5.40365 12.1766 5.33341 11.9998 5.33341H11.3332C11.1564 5.33341 10.9868 5.40365 10.8618 5.52868C10.7367 5.6537 10.6665 5.82327 10.6665 6.00008V6.66675C10.6665 6.84356 10.7367 7.01313 10.8618 7.13815C10.9868 7.26318 11.1564 7.33341 11.3332 7.33341ZM3.99984 8.00008H7.33317C7.50998 8.00008 7.67955 7.92984 7.80457 7.80482C7.9296 7.67979 7.99984 7.51023 7.99984 7.33341C7.99984 7.1566 7.9296 6.98703 7.80457 6.86201C7.67955 6.73699 7.50998 6.66675 7.33317 6.66675H3.99984C3.82303 6.66675 3.65346 6.73699 3.52843 6.86201C3.40341 6.98703 3.33317 7.1566 3.33317 7.33341C3.33317 7.51023 3.40341 7.67979 3.52843 7.80482C3.65346 7.92984 3.82303 8.00008 3.99984 8.00008ZM14.6665 2.66675H1.33317C1.15636 2.66675 0.98679 2.73699 0.861766 2.86201C0.736742 2.98703 0.666504 3.1566 0.666504 3.33341V12.6667C0.666504 12.8436 0.736742 13.0131 0.861766 13.1382C0.98679 13.2632 1.15636 13.3334 1.33317 13.3334H14.6665C14.8433 13.3334 15.0129 13.2632 15.1379 13.1382C15.2629 13.0131 15.3332 12.8436 15.3332 12.6667V3.33341C15.3332 3.1566 15.2629 2.98703 15.1379 2.86201C15.0129 2.73699 14.8433 2.66675 14.6665 2.66675ZM13.9998 12.0001H1.99984V4.00008H13.9998V12.0001ZM3.99984 10.6667H7.33317C7.50998 10.6667 7.67955 10.5965 7.80457 10.4715C7.9296 10.3465 7.99984 10.1769 7.99984 10.0001C7.99984 9.82327 7.9296 9.6537 7.80457 9.52868C7.67955 9.40365 7.50998 9.33341 7.33317 9.33341H3.99984C3.82303 9.33341 3.65346 9.40365 3.52843 9.52868C3.40341 9.6537 3.33317 9.82327 3.33317 10.0001C3.33317 10.1769 3.40341 10.3465 3.52843 10.4715C3.65346 10.5965 3.82303 10.6667 3.99984 10.6667Z" fill="#4F5665"/>
</svg>
