<svg width="16" height="16" viewBox="0 0 16 16" fill="none" xmlns="http://www.w3.org/2000/svg">
<path d="M4.66097 9.66806C4.57342 9.66804 4.48672 9.68526 4.40582 9.71876C4.32493 9.75225 4.25143 9.80136 4.18952 9.86327C4.12761 9.92518 4.0785 9.99868 4.04501 10.0796C4.01151 10.1605 3.99428 10.2472 3.99431 10.3347V11.5229C3.13501 10.5511 2.66078 9.29861 2.66097 8.00139C2.66085 7.80533 2.67259 7.60945 2.69613 7.4148C2.70692 7.32776 2.70043 7.23945 2.67703 7.15492C2.65363 7.07039 2.61378 6.99132 2.55976 6.92222C2.50575 6.85312 2.43863 6.79536 2.36225 6.75225C2.28587 6.70914 2.20173 6.68152 2.11466 6.67099C2.02759 6.66045 1.93929 6.6672 1.85483 6.69085C1.77037 6.7145 1.69141 6.75458 1.62248 6.8088C1.55354 6.86302 1.49597 6.93032 1.45309 7.00682C1.4102 7.08333 1.38284 7.16755 1.37256 7.25465C1.34236 7.50242 1.32736 7.75179 1.32764 8.00139C1.32855 9.59216 1.90028 11.1298 2.93889 12.3347H1.99431C1.8175 12.3347 1.64793 12.405 1.5229 12.53C1.39788 12.655 1.32764 12.8246 1.32764 13.0014C1.32764 13.1782 1.39788 13.3478 1.5229 13.4728C1.64793 13.5978 1.8175 13.6681 1.99431 13.6681H4.66097C4.76524 13.6667 4.86768 13.6405 4.95977 13.5916C5.05186 13.5427 5.13093 13.4725 5.19039 13.3869C5.19817 13.3766 5.20809 13.369 5.21533 13.3582C5.21977 13.3516 5.21989 13.3437 5.22404 13.3369C5.25581 13.2833 5.27962 13.2253 5.29471 13.1647C5.30458 13.1307 5.31159 13.096 5.31566 13.0608C5.31757 13.0402 5.32766 13.0225 5.32766 13.0014V10.3347C5.32769 10.2472 5.31046 10.1605 5.27696 10.0796C5.24347 9.99869 5.19436 9.92518 5.13245 9.86327C5.07054 9.80136 4.99703 9.75225 4.91613 9.71875C4.83524 9.68526 4.74853 9.66803 4.66097 9.66806ZM5.66097 4.00139H4.47266C5.44453 3.14213 6.69706 2.66791 7.99431 2.66806C8.19027 2.66759 8.38607 2.67933 8.58057 2.70322C8.66752 2.71378 8.75569 2.70711 8.84007 2.68359C8.92444 2.66007 9.00335 2.62016 9.0723 2.56614C9.14125 2.51213 9.19888 2.44506 9.24191 2.36877C9.28494 2.29248 9.31252 2.20846 9.32308 2.12151C9.33364 2.03456 9.32697 1.94638 9.30345 1.86201C9.27993 1.77764 9.24002 1.69873 9.18601 1.62978C9.13199 1.56083 9.06492 1.5032 8.98863 1.46017C8.91234 1.41714 8.82832 1.38956 8.74137 1.379C8.49348 1.34909 8.244 1.33431 7.99431 1.33473C6.40355 1.33559 4.86592 1.90728 3.66097 2.94585V2.00139C3.66097 1.82458 3.59074 1.65501 3.46571 1.52999C3.34069 1.40496 3.17112 1.33473 2.99431 1.33473C2.8175 1.33473 2.64793 1.40496 2.5229 1.52999C2.39788 1.65501 2.32764 1.82458 2.32764 2.00139V4.66806C2.33183 4.71212 2.34062 4.75563 2.35385 4.79787L2.35401 4.79868C2.3702 4.88071 2.40216 4.95883 2.44812 5.02868L2.45573 5.03995C2.49978 5.10401 2.555 5.15964 2.61873 5.20417C2.62602 5.20951 2.62964 5.21768 2.63721 5.22277C2.64673 5.22907 2.65751 5.23107 2.66724 5.23685C2.70505 5.25959 2.74511 5.27836 2.78679 5.29285C2.84311 5.31244 2.90183 5.32429 2.96135 5.32808C2.9729 5.32869 2.98263 5.33475 2.99431 5.33475H5.66097C5.83778 5.33475 6.00735 5.26451 6.13238 5.13948C6.2574 5.01446 6.32764 4.84489 6.32764 4.66808C6.32764 4.49127 6.2574 4.3217 6.13238 4.19667C6.00735 4.07165 5.83778 4.00141 5.66097 4.00141V4.00139ZM13.6346 11.2041C13.6184 11.1221 13.5865 11.0439 13.5404 10.9741L13.5329 10.9629C13.4888 10.8988 13.4336 10.8431 13.3698 10.7986C13.3625 10.7933 13.3589 10.7851 13.3514 10.78C13.3442 10.7752 13.3357 10.7751 13.3283 10.7706C13.2438 10.7236 13.1511 10.693 13.0552 10.6803C13.0341 10.6783 13.0159 10.668 12.9943 10.668H10.3276C10.1508 10.668 9.98126 10.7383 9.85624 10.8633C9.73121 10.9883 9.66097 11.1579 9.66097 11.3347C9.66097 11.5115 9.73121 11.6811 9.85624 11.8061C9.98126 11.9311 10.1508 12.0014 10.3276 12.0014H11.5159C10.5441 12.8606 9.29155 13.3348 7.99431 13.3347C7.79833 13.3349 7.60253 13.323 7.40804 13.2989C7.23244 13.2776 7.05556 13.3269 6.91631 13.436C6.77706 13.545 6.68685 13.705 6.66553 13.8806C6.6442 14.0562 6.69351 14.2331 6.8026 14.3723C6.91169 14.5116 7.07163 14.6018 7.24723 14.6231C7.49514 14.653 7.74461 14.668 7.99431 14.668C9.58507 14.6672 11.1227 14.0955 12.3276 13.0569V14.0014C12.3276 14.1782 12.3979 14.3478 12.5229 14.4728C12.6479 14.5978 12.8175 14.6681 12.9943 14.6681C13.1711 14.6681 13.3407 14.5978 13.4657 14.4728C13.5907 14.3478 13.661 14.1782 13.661 14.0014V11.3347C13.6568 11.2907 13.648 11.2472 13.6348 11.2049L13.6346 11.2041ZM13.9943 3.66806C14.1711 3.66806 14.3407 3.59782 14.4657 3.4728C14.5907 3.34777 14.661 3.1782 14.661 3.00139C14.661 2.82458 14.5907 2.65501 14.4657 2.52999C14.3407 2.40496 14.1711 2.33473 13.9943 2.33473H11.3276C11.2842 2.33891 11.2414 2.34755 11.1998 2.36053L11.1953 2.36142C11.1144 2.37762 11.0372 2.40919 10.9682 2.45444L10.9551 2.46327C10.8914 2.50725 10.836 2.56229 10.7916 2.62579C10.7863 2.63299 10.7783 2.63653 10.7733 2.64397C10.7685 2.65113 10.7684 2.6596 10.7639 2.66688C10.7163 2.75194 10.6854 2.84532 10.673 2.94199C10.6711 2.96258 10.661 2.98032 10.661 3.00139V5.66806C10.661 5.84487 10.7312 6.01444 10.8562 6.13946C10.9813 6.26449 11.1508 6.33472 11.3276 6.33472C11.5045 6.33472 11.674 6.26449 11.799 6.13946C11.9241 6.01444 11.9943 5.84487 11.9943 5.66806V4.47947C12.8535 5.45145 13.3278 6.70404 13.3276 8.00136C13.3278 8.19742 13.316 8.39331 13.2925 8.58795C13.2714 8.76343 13.3207 8.94013 13.4297 9.07927C13.5387 9.21841 13.6984 9.30863 13.8739 9.33014C13.9009 9.33327 13.9281 9.33479 13.9552 9.33469C14.118 9.33448 14.2751 9.27471 14.3968 9.16665C14.5186 9.05858 14.5965 8.90971 14.6161 8.74811C14.6463 8.50035 14.6613 8.25098 14.661 8.00139C14.6601 6.4106 14.0883 4.87297 13.0496 3.66806H13.9943Z" fill="#4F5665"/>
</svg>
